<svg viewBox="0 0 960 960"><path d="m138.924 480.793 183.674 183.9q9.399 9.399 9.625 23.78t-9.625 23.78-23.894 9.852q-14.041.453-23.78-9.852L71.32 508.763q-6.454-6.342-9.059-13.363-2.604-7.02-2.378-15.287.227-8.266 2.605-15.287 2.378-7.02 9.059-13.362l203.49-203.604q10.192-10.078 24.007-10.191t24.46 10.191 10.53 24.233q-.112 13.929-10.53 24.233zm682.152-1.36-183.674-183.9q-9.399-9.398-9.625-23.78-.227-14.38 9.625-23.78 9.852-9.399 23.894-9.852 14.041-.452 23.78 9.852l203.717 203.49q6.341 6.342 8.946 13.363 2.604 7.02 2.378 15.287-.227 8.267-2.605 15.287t-9.059 13.363L685.19 712.366q-10.191 10.079-23.78 9.965-13.589-.113-24.007-10.644t-10.531-24.233 10.531-24.233z"/></svg>