<svg xmlns="http://www.w3.org/2000/svg" width="128" height="128" fill="#e3e3e3" viewBox="0 -960 128 128"><path fill="#f1f1f1" fill-opacity=".9" d="M4-861.6q1-14.5 8.9-26.8 7.7-12.4 20.5-19.6l-10.2-17.6q-.4-1.2 0-2.4.3-1.2 1.4-2 1.3-.6 2.7-.2t2 1.6l10.2 17.4q11.7-5 24.5-5t24.5 5l10.2-17.4q.7-1.2 2.2-1.6 1.4-.4 2.6.3 1.1.7 1.6 2 .5 1.2-.2 2.3L94.5-908q12.8 7.2 20.6 19.6 7.8 12.3 8.9 26.8zm32.7-15q2.8 0 4.8-2 2-2.1 2-4.8 0-2.8-2-4.8t-4.8-2-4.7 2-2 4.8 2 4.7 4.7 2m54.6 0q2.7 0 4.7-2t2-4.7-2-4.8-4.8-2-4.7 2-2 4.8 2 4.7 4.8 2"/></svg>