<svg xmlns="http://www.w3.org/2000/svg" xml:space="preserve" width="128" height="128"><path fill="#00599c" d="M116 94q1.2-2.2 1.2-4.5V38.6q0-2.2-1.3-4.5L64 64.1z"/><path fill="#004482" d="m68.6 122.9 44-25.5q2-1.2 3.3-3.4L64 64 12 94q1.5 2.2 3.4 3.4l44 25.5a10 10 0 0 0 9.2 0"/><path fill="#659ad2" d="M116 34.1q-1.5-2.2-3.4-3.4L68.7 5.1a10 10 0 0 0-9.3 0l-44 25.6c-2.5 1.4-4.6 5-4.6 8v50.8q0 2.2 1.3 4.5L64 64z"/><path fill="#fff" d="M64 99.5a35.5 35.5 0 1 1 30.8-53.2l-15.4 9a17.8 17.8 0 1 0 0 17.7l15.4 8.8A36 36 0 0 1 64 99.5"/><path fill="#fff" d="M95.6 66h4v-4h-4v-4h-4v4h-4v4h4v4h4zm14.7 0h4v-4h-4v-4h-4v4h-3.9v4h4v4h4z"/></svg>