<svg xmlns="http://www.w3.org/2000/svg" xml:space="preserve" width="128" height="128"><g transform="translate(2.3 3.5)scale(.88138)"><path fill="#01579b" d="M29.6 109 6.4 85.6a16 16 0 0 1-4.5-10.8c0-1.8 1-4.6 1.8-6.3L25.2 24z"/><path fill="#40c4ff" d="M109.3 28.4 86.1 5A16 16 0 0 0 76.2.6c-3 0-6 .6-8 1.8l-43 21.5zM57.4 136.7h56.4v-24.2L71.7 99.1l-38.5 13.4z"/><path fill="#29b6f6" d="M25.2 96.4c0 7.2.9 9 4.5 12.5l3.5 3.6h80.6L74.4 67.8l-49.2-44z"/><path fill="#01579b" d="M96.8 23.9H25.2l88.6 88.6H138V57l-28.7-28.6c-4-4-7.6-4.5-12.5-4.5"/><path fill="#fff" d="M30.5 109.8c-3.5-3.6-4.4-7.1-4.4-13.4V24.8l-1-1v72.6c0 6.3 0 8 5.4 13.4l2.7 2.7z" opacity=".2"/><path fill="#263238" d="M138 112.5V57l-.9-.9v55.5h-24.2l.9.9z" opacity=".2"/><path fill="#fff" d="M109.3 28.4c-4.4-4.5-8-4.5-13.4-4.5H25.2l.9.9h69.8c2.7 0 9.4-.5 13.4 3.5" opacity=".2"/><radialGradient id="a" cx="70" cy="60.9" r="68.1" gradientTransform="matrix(1 0 0 -1 0 129.5)" gradientUnits="userSpaceOnUse"><stop offset="0" stop-color="#fff" stop-opacity=".1"/><stop offset="1" stop-color="#fff" stop-opacity="0"/></radialGradient><path fill="url(#a)" d="m137.1 56.1-27.8-27.7L86.1 5A16 16 0 0 0 76.2.6c-3 0-6 .6-8 1.8l-43 21.5L3.7 68.6A18 18 0 0 0 1.9 75c0 4 1.7 8 4.5 10.8L27.8 107l1.9 2 .9.8 2.7 2.7 23.2 23.3 1 1h56.4v-24.3H138V57z" opacity=".2"/></g></svg>