<svg xmlns="http://www.w3.org/2000/svg" width="128" height="128" fill="#e3e3e3" viewBox="0 -960 128 128"><path fill="#f1f1f1" fill-opacity=".9" d="M64-836q-25.2 0-42.6-7.9T4-863.2v-65.6Q4-940 21.6-948q17.5-8 42.4-8t42.4 8 17.6 19.2v65.6q0 11.4-17.4 19.3T64-836m0-81q14 0 28.8-4.3t19.2-9.8q-4.6-5.2-19.4-9.6T64-945.1q-14.4 0-29 4.3t-19 9.7q4.6 5.8 19 10 14.4 4.1 29 4.1m0 35q6.8 0 13.6-.7 6.8-.8 13.1-2.3t12-3.6 10.5-4.9v-24q-4.8 2.5-10.6 4.7-5.7 2.1-12 3.6-6.4 1.4-13.1 2.2t-13.6.8q-6.8 0-13.7-.8t-13-2.3q-6.4-1.4-12-3.5-5.7-2.2-10.2-4.8v24.1q4.4 2.7 10 4.8 5.6 2.2 12 3.7 6.3 1.5 13.1 2.3 6.9.7 13.8.7m.2 35.1q7.8 0 16-1.3 8.3-1.4 15.3-3.7t11.8-5 6-5.8v-19.6q-4.7 2.6-10.4 4.7t-12 3.6-13 2.2q-6.9.7-13.9.7t-13.8-.7-13.2-2.3q-6.3-1.4-11.8-3.5T15-882.3v19.7q1 2.8 5.7 5.7 4.8 2.8 11.8 5t15.4 3.6 16.2 1.4"/></svg>