<svg xmlns="http://www.w3.org/2000/svg" width="128" height="128" fill="#e3e3e3" viewBox="0 -960 960 960"><path d="M150-120q-24 0-42-18t-18-42v-600q0-24 18-42t42-18h600q24 0 42 18t18 42v60h30q13 0 21 9 9 8 9 21t-9 21q-8 9-21 9h-30v150h30q13 0 21 9 9 8 9 21t-9 22-21 8h-30v150h30q13 0 21 9 9 8 9 21t-9 22-21 8h-30v60q0 24-18 42t-42 18zm0-60h600v-600H150zm90-60h193q13 0 21-9 9-8 9-21v-140q0-13-9-21-8-9-21-9H240q-13 0-21 9-9 8-9 21v140q0 13 9 21 8 9 21 9m283-336h137q13 0 21-9 9-8 9-21v-84q0-13-9-21-8-9-21-9H523q-13 0-21 9-9 8-9 21v84q0 13 9 21 8 9 21 9M240-470h193q13 0 21-9 9-8 9-21v-190q0-13-9-21-8-9-21-9H240q-13 0-21 9-9 8-9 21v190q0 13 9 21 8 9 21 9m283 230h137q13 0 21-9 9-8 9-21v-246q0-13-9-21-8-9-21-9H523q-13 0-21 9-9 8-9 21v246q0 13 9 21 8 9 21 9M150-780v600z"/></svg>