<svg xmlns="http://www.w3.org/2000/svg" width="128" height="128" overflow="hidden"><path fill="none" d="M0 0h128v128H0z"/><g fill-rule="evenodd"><path fill="#fdaf67" d="M47.2 120c15.8 5.2 30.2 3.5 36.1-.9L62.7 96.6z"/><path fill="#dd6447" d="M64.8 4.8c-60 66 6.3 111 18 115.1 30-20.6 26.8-38.5 27.1-44.7-4.8-32.2-30.1-47-45.1-70.4"/><path fill="#ffd97f" d="M21.6 53.2c-11 36.6 5.3 55.7 25.7 66.7 24-15.2 23.3-36.6 18-47.2-8.4-15.8-23-23.3-43.7-19.5"/><path fill="#fdaf67" d="m40.3 53.1 2 .4c10 2.6 17.7 9.3 23 19.1a34 34 0 0 1-2.1 31.7l-.9 1.3-1-.9a65 65 0 0 1-21.2-49.6z"/></g></svg>