<svg xmlns="http://www.w3.org/2000/svg" width="128" height="128"><path fill="#ffdb1e" d="M116.7 23.4c17.5 42.7 0 65.7-14.8 78.4 3.6 12.6-10.8 15.3-16.3 9a74 74 0 0 1-72.4-18C.5 80 10.4 51.7 43.9 33c29-16.3 58-25.4 72.8-9.6"/><path fill="#fff" stroke="#ffdb1e" stroke-width="3.6" d="M44 33c24.7-16.3 54.3-23.1 66.4-12.6C129 36.6 71.1 73.2 49.4 82c-23.6 9.3-10.9 30.7-23.6 30.7-10.8 0-9-14.4-18.7-28-5.8-8 8.5-33 36.8-51.6z"/><path fill="#ffe600" d="M96.6 23.1c16.8 4.5-1.4 20.6-15.6 31a190 190 0 0 1-28.7 17.4c-1.3.6-5.9-8.2-5.9-3.6 0 1.5-2.5 8-3.3 8.4A77 77 0 0 1 21.9 81c-12.6 0-7-17.2 11-33 3.2-3 5.3-2.4 8.2-2.4-2-2.8-2-3.3 1.5-5.6 15-10.1 34-16.9 42-18.2 1.3 0 2.9 1.3 2.9 2.3a31 31 0 0 1 9-1"/><path fill="#fff" d="M45 51c3.6-2.6 6-3.6 7.6-9 2 .3 3-.4 4.7-2.6 1.2 1.7 6 2.2 8.9 2.5-2.6 1.6-3.9 3.1-5.3 7.6-5.3-2.2-11.5-1-15.9 1.6"/></svg>