<svg xmlns="http://www.w3.org/2000/svg" width="128" height="128" fill="none"><path fill="#fff" fill-rule="evenodd" d="M64 4a61.5 61.5 0 0 0-19.5 119.9c3.1.5 4.3-1.3 4.3-3l-.1-11.4c-15.5 2.8-19.5-3.8-20.7-7.2-.7-1.8-3.7-7.3-6.3-8.7-2.1-1.2-5.2-4 0-4 4.8-.2 8.2 4.4 9.4 6.2 5.5 9.3 14.4 6.7 18 5a13 13 0 0 1 3.8-8.1C39.2 91 25 85.8 25 62.3a24 24 0 0 1 6.3-16.5c-.6-1.6-2.7-7.9.7-16.3 0 0 5.1-1.7 16.9 6.3a57 57 0 0 1 30.7 0c11.8-8 17-6.3 17-6.3 3.3 8.4 1.2 14.7.6 16.3 3.9 4.3 6.3 9.7 6.3 16.5 0 23.6-14.4 28.8-28.1 30.4 2.2 1.9 4.2 5.6 4.2 11.3l-.1 17c0 1.6 1.1 3.5 4.2 2.9A61.6 61.6 0 0 0 64 4" clip-rule="evenodd"/></svg>