<svg xmlns="http://www.w3.org/2000/svg" width="128" height="128"><g fill="#fff" fill-rule="evenodd"><path d="M13 55.2q-.3 0-.1-.3l1.2-1.6q.2-.3.7-.3h20.8q.3 0 .2.3l-1 1.6-.6.3zm-8.8 5.3q-.4 0-.1-.3l1.2-1.5q.2-.3.6-.3h26.7q.3 0 .3.3l-.5 1.4q-.1.4-.5.4zM18.4 66q-.4-.1-.2-.4L19 64q.2-.4.6-.4h11.7q.3 0 .3.5v1.4q-.1.4-.5.4zM79 54.1l-9.8 2.6c-.9.2-1 .3-1.7-.6-.9-1-1.5-1.6-2.7-2.2a10 10 0 0 0-10.6.8q-6 4-6 11.2a9 9 0 0 0 8 9.1q5.9.6 9.8-3.8l1.6-2.2H56.3q-1.8-.2-1-1.7c.7-1.9 2.1-4.9 3-6.4q0-.8 1.4-1h21.2q0 2.4-.3 4.8A25 25 0 0 1 75.8 76q-6.3 8.4-16.6 10-8.7 1.2-15.8-3.9a18 18 0 0 1-7.4-13 23 23 0 0 1 5-17A26 26 0 0 1 57.3 42q8.3-1.7 15.5 2.9 4.6 3 6.8 8.2.5.7-.6 1"/><path fill-rule="nonzero" d="M98.4 86.4A22 22 0 0 1 84 81.3q-5.2-4.5-6.3-11.3-1.3-9.8 4.7-17.6c4.3-5.7 9.4-8.6 16.4-9.8 6-1 11.6-.5 16.6 3q7 4.6 8.3 13 1.5 11.7-6.7 19.8-5.9 6-14 7.5l-4.7.5m13.9-23.6-.2-2c-1-5.7-6.4-9-12-7.7Q92 55 90 63.3a9.6 9.6 0 0 0 5.4 11q4.8 2 9.5-.3 7-3.7 7.5-11.2"/></g></svg>