<svg xmlns="http://www.w3.org/2000/svg" width="128" height="128" fill="#e3e3e3" viewBox="0 -960 128 128"><path fill="#f1f1f1" fill-opacity=".9" d="M32.8-839q-11.8 0-20.3-8.5T4-867.8q0-10.2 6-17.8t15.6-10v9.7q-5.4 2-8.9 7t-3.4 11.1q0 8 5.7 13.8t13.8 5.7 13.8-5.7 5.7-13.8v-4.7H89q1.3-1.3 2.9-2.1t3.3-.8q3.2 0 5.4 2.2t2.2 5.4q0 3-2.2 5.4-2.2 2.2-5.4 2.2-1.7 0-3.3-.8t-2.9-2H61.4q-2.2 10.4-10.2 17.3-7.9 6.8-18.4 6.8m62.4 0q-7.2 0-13.4-3.3t-10.2-9h13.3q2.2 1.5 4.9 2.3 2.6.7 5.4.7 8.1 0 13.8-5.7t5.7-13.8-5.7-13.8-13.8-5.7q-3 0-5.4.7t-4.7 2.1l-19-32.1q-3-.6-4.9-2.7-1.9-2-1.9-5 0-3.1 2.3-5.3Q64-932 67-932t5.4 2.3q2.2 2.2 2.2 5.4v1l-.4 1.6L89-896l3.3-.5 2.8-.1q12 0 20.4 8.4t8.4 20.4q0 11.8-8.4 20.3T95.2-839m-62.4-21.2q-3 0-5.3-2.2t-2.3-5.4q0-2.7 1.9-4.8t4.7-2.8l16.1-27.2q-4.6-4.3-7.2-10t-2.6-11.6q0-12 8.5-20.4T67-953q11.5 0 19.9 8t8.9 19.3h-9.3q-.5-7.7-6-12.8-5.7-5.2-13.5-5.2-8.1 0-13.8 5.7t-5.7 13.8q0 6.3 3.7 11.4t9.5 7l-20.8 35.2.4 1.6.2 1.2q0 3.1-2.2 5.4t-5.5 2.3"/></svg>