<svg xmlns="http://www.w3.org/2000/svg" width="128" height="128" fill="#e3e3e3" viewBox="0 0 53.33 53.33"><path d="m34.48 21.98 2.47-5.38 5.34-2.43-5.34-2.44-2.47-5.38-2.38 5.38-5.43 2.44 5.43 2.43zM7.92 28.23l1.25-5 5-1.25-5-1.25-1.25-5-1.25 5-5 1.25 5 1.25z"/><path d="M46.98 15.73a4.67 4.67 0 0 0-4.22 6.69l-9.4 9.4a4.6 4.6 0 0 0-4.04 0l-3.15-3.15c.3-.6.5-1.28.5-2a4.68 4.68 0 1 0-8.91 2l-9.4 9.4a4.68 4.68 0 1 0 2.22 2.22l9.4-9.4a4.6 4.6 0 0 0 4.03 0l3.16 3.15a4 4 0 0 0-.5 2 4.68 4.68 0 1 0 8.9-2l9.4-9.4a4.66 4.66 0 0 0 6.7-4.22c0-2.6-2.1-4.7-4.7-4.7"/></svg>