<svg xmlns="http://www.w3.org/2000/svg" xmlns:xlink="http://www.w3.org/1999/xlink" width="128" height="128" version="1.0"><defs><linearGradient id="a"><stop offset="0" stop-color="#ffd43b"/><stop offset="1" stop-color="#ffe873"/></linearGradient><linearGradient id="b"><stop offset="0" stop-color="#5a9fd4"/><stop offset="1" stop-color="#306998"/></linearGradient><linearGradient xlink:href="#a" id="d" x1="151" x2="112" y1="192.4" y2="137.3" gradientTransform="matrix(.56254 0 0 .56797 -6.6 -3.9)" gradientUnits="userSpaceOnUse"/><linearGradient xlink:href="#b" id="c" x1="26.6" x2="135.7" y1="20.6" y2="114.4" gradientTransform="matrix(.56254 0 0 .56797 -6.6 -3.9)" gradientUnits="userSpaceOnUse"/></defs><path fill="url(#c)" d="M63.4 7.8q-7 0-13 1c-11.2 2.2-13.3 6.4-13.3 14v10.3H64v3.4H27.1c-7.9 0-14.7 4.6-16.8 13.6a50 50 0 0 0 0 27.2c2 8 6.4 13.6 14.2 13.6h9.3V78.6A17 17 0 0 1 50.4 62h27c7.4 0 13.4-6 13.4-13.6V22.8c0-7.2-6-12.7-13.4-14q-7-1-14-1M48.7 16a5 5 0 0 1 5 5.1 5 5 0 0 1-5 5.1 5 5 0 0 1-5-5 5 5 0 0 1 5-5.2"/><path fill="url(#d)" d="M94 36.5v12c0 9.1-7.8 17-16.7 17H50.4C43.1 65.4 37 71.5 37 79v25.5c0 7.3 6.3 11.6 13.4 13.6 8.5 2.5 16.6 3 26.8 0 6.7-2 13.4-5.8 13.4-13.6V94.3H64V91h40.2c7.8 0 10.7-5.4 13.4-13.6a46 46 0 0 0 0-27.2c-2-7.8-5.6-13.6-13.4-13.6zm-15 64.6a5 5 0 0 1 5 5.1 5 5 0 0 1-5 5.1 5 5 0 0 1-5-5 5 5 0 0 1 5-5.2"/></svg>