<svg xmlns="http://www.w3.org/2000/svg" width="128" height="128"><g transform="translate(64 64)scale(1.1429)"><path fill="#f1f1f1" stroke="#f1f1f1" stroke-linejoin="round" d="M-8.5-14.5h13c8 0 8 8 0 8h-13zm-31 37h40v-11h-9v-8h10c11 0 5 19 14 19h25v-19h-6v2c0 8-9 7-10 2s-5-9-6-9c15-8 6-24-6-24h-47v11h10v26h-15z"/><g mask="url(#a)"><circle r="43" fill="none" stroke="#f1f1f1" stroke-width="9"/><path id="b" fill="#f1f1f1" stroke="#f1f1f1" stroke-linejoin="round" stroke-width="3" d="m46 3 5-3-5-3z"/><use href="#b" transform="rotate(11.3)"/><use href="#b" transform="rotate(22.5)"/><use href="#b" transform="rotate(33.8)"/><use href="#b" transform="rotate(45)"/><use href="#b" transform="rotate(56.3)"/><use href="#b" transform="rotate(67.5)"/><use href="#b" transform="rotate(78.8)"/><use href="#b" transform="rotate(90)"/><use href="#b" transform="rotate(101.3)"/><use href="#b" transform="rotate(112.5)"/><use href="#b" transform="rotate(123.8)"/><use href="#b" transform="rotate(135)"/><use href="#b" transform="rotate(146.3)"/><use href="#b" transform="rotate(157.5)"/><use href="#b" transform="rotate(168.8)"/><use href="#b" transform="scale(-1)"/><use href="#b" transform="rotate(191.2)"/><use href="#b" transform="rotate(202.5)"/><use href="#b" transform="rotate(213.7)"/><use href="#b" transform="rotate(225)"/><use href="#b" transform="rotate(236.2)"/><use href="#b" transform="rotate(247.5)"/><use href="#b" transform="rotate(258.7)"/><use href="#b" transform="rotate(-90)"/><use href="#b" transform="rotate(-78.8)"/><use href="#b" transform="rotate(-67.5)"/><use href="#b" transform="rotate(-56.3)"/><use href="#b" transform="rotate(-45)"/><use href="#b" transform="rotate(-33.8)"/><use href="#b" transform="rotate(-22.5)"/><use href="#b" transform="rotate(-11.3)"/><path id="c" fill="none" stroke="#f1f1f1" stroke-linejoin="round" stroke-width="6" d="m-7-42 7 7 7-7z"/><use href="#c" transform="rotate(72)"/><use href="#c" transform="rotate(144)"/><use href="#c" transform="rotate(216)"/><use href="#c" transform="rotate(-72)"/></g><mask id="a"><path fill="#fff" d="M-60-60H60V60H-60z"/><circle id="d" cy="-40" r="3"/><use href="#d" transform="rotate(72)"/><use href="#d" transform="rotate(144)"/><use href="#d" transform="rotate(216)"/><use href="#d" transform="rotate(-72)"/></mask></g></svg>