<svg xmlns="http://www.w3.org/2000/svg" width="128" height="128" fill="none"><path fill="url(#a)" d="M73.9 122a5.2 5.2 0 0 1-9.4-3.2l-1-72h48.4c8.8 0 13.7 10 8.2 17z"/><path fill="url(#b)" fill-opacity=".2" d="M73.9 122a5.2 5.2 0 0 1-9.4-3.2l-1-72h48.4c8.8 0 13.7 10 8.2 17z"/><path fill="#3ecf8e" d="M54.1 6a5.3 5.3 0 0 1 9.4 3.2l.5 72H16a10.5 10.5 0 0 1-8.2-17z"/><defs><linearGradient id="a" x1="54" x2="94.2" y1="55" y2="71.8" gradientTransform="translate(5.6 3.8)scale(1.0721)" gradientUnits="userSpaceOnUse"><stop offset="0" stop-color="#249361"/><stop offset="1" stop-color="#3ECF8E"/></linearGradient><linearGradient id="b" x1="36.2" x2="54.5" y1="30.6" y2="65.1" gradientTransform="translate(5.6 3.8)scale(1.0721)" gradientUnits="userSpaceOnUse"><stop offset="0"/><stop offset="1" stop-opacity="0"/></linearGradient></defs></svg>