<?xml version="1.0" encoding="UTF-8"?>
<svg width="128" height="128" version="1.1" viewBox="0 0 128 128" xmlns="http://www.w3.org/2000/svg">
 <rect x="4" y="4" width="120" height="120" rx="11.7" fill="#3178c6"/>
 <rect x="4" y="4" width="120" height="120" rx="11.7" fill="#3178c6"/>
 <path d="m78.3 99.5v11.7q2.8 1.5 6.8 2.2a45 45 0 0 0 16.2 0q3.7-0.9 6.7-2.7a14 14 0 0 0 6.2-12.2q0-3.2-1-5.6a13 13 0 0 0-2.7-4.3 20 20 0 0 0-4.4-3.4q-2.4-1.5-5.6-2.8a71 71 0 0 1-7.3-3.6 8 8 0 0 1-2-2q-0.6-1-0.7-2.4 0-1.2 0.7-2.2t1.7-1.6q1.2-0.8 2.8-1.1t3.7-0.4a23 23 0 0 1 12.4 3.7v-11q-2.6-1-5.8-1.5a48 48 0 0 0-15.2 0.4q-3.7 0.9-6.6 2.8a14 14 0 0 0-4.5 4.8q-1.5 3-1.6 7.1 0 5.2 3 9 3 3.6 9.2 6.2l8.1 4q1.5 1 2.4 2.2a5 5 0 0 1 0.3 4.8q-0.5 1-1.6 1.7-1.2 0.8-2.8 1.1t-4 0.4a22 22 0 0 1-14.4-5.3m-19.7-29h15v-9.5h-42v9.6h15v42.9h12z" clip-rule="evenodd" fill="#fff" fill-rule="evenodd"/>
</svg>
