<svg xmlns="http://www.w3.org/2000/svg" width="128" height="128" fill="#e3e3e3" viewBox="0 -960 128 128"><path fill="#f1f1f1" fill-opacity=".9" d="M64-836q-12.6 0-23.6-4.7-10.9-4.7-19-12.8T8.6-872.7 4-896.3t4.6-23.5 12.8-19q8.1-8 19-12.6T64-956t23.5 4.6 19 12.7q8.2 8 12.8 19t4.7 23.4q0 12.6-4.7 23.6t-12.7 19.2q-8.1 8-19 12.8-11 4.7-23.6 4.7m0-9.7q5-5.3 8.5-12.2t5.7-16.3H49.9q2 9 5.5 16t8.5 12.5m-12.4-1.8q-3.7-5.6-6.3-12t-4.4-14.7h-22q5.5 10.5 12.9 16.5 7.3 5.9 19.8 10.2m25-.2q10.6-3.3 19-10.1t13.7-16.4H87.3q-1.9 8-4.4 14.5t-6.4 12m-60.7-35.2h23.3q-.4-4-.5-7.2v-6.2l.1-6.5.6-6.4H15.8q-1 3.5-1.4 6.3t-.3 6.6.3 6.8 1.4 6.6m32.5 0h31.5l.7-7.4.1-6-.1-5.6q-.1-2.6-.7-7.3H48.3q-.6 4.6-.7 7.3t-.2 5.6l.2 6q.1 2.8.7 7.4m40.4 0H112q1-3.6 1.4-6.6t.4-6.8-.4-6.6-1.4-6.3H88.8l.5 7.9.2 5q0 3.2-.2 6zM87.2-918h22q-4.9-10.1-13.3-16.9t-19.5-9.6q3.7 5.5 6.3 11.8t4.5 14.7m-37.3 0h28.4q-1.6-7.8-5.4-15-3.9-7.4-9-13-4.6 4-7.8 10.5T49.9-918m-31.1 0h22.1q1.7-7.9 4.1-14.2 2.5-6.2 6.3-12.1-11 2.8-19.2 9.4T18.8-918"/></svg>